<?xml version="1.0" encoding="utf-8"?>
<!-- Generator: Adobe Illustrator 27.0.1, SVG Export Plug-In . SVG Version: 6.00 Build 0)  -->
<svg version="1.1" id="Layer_1" xmlns="http://www.w3.org/2000/svg" xmlns:xlink="http://www.w3.org/1999/xlink" x="0px" y="0px"
	 viewBox="0 0 1674.2 521.3" style="enable-background:new 0 0 1674.2 521.3;" xml:space="preserve">
<path d="M1480.8-145.4h-87.2c-22.6,0-40.9-18.3-40.9-40.9v-87.2c0-22.6,18.3-40.9,40.9-40.9h87.2c22.6,0,40.9,18.3,40.9,40.9v87.2
	C1521.7-163.7,1503.4-145.4,1480.8-145.4z"/>
<path d="M5.3,399.3l72.2-91.9h53.1c64.6,0,91.4-10.5,91.4-45V79.2h111v174.6c0,97.1-67.5,145.5-202.4,145.5H5.3z"/>
<path d="M364.1,399.3l72.2-91.9h53.1c64.6,0,91.4-10.5,91.4-45V79.2h111v174.6c0,97.1-67.5,145.5-202.4,145.5H364.1z"/>
<path d="M933,399.3c-112.4,0-195.2-70.3-195.2-163.2c0-93.8,82.8-156.9,195.2-156.9h229.7l-70.8,93.3H933
	c-51.2,0-84.2,16.3-84.2,63.6c0,47.8,33,71.3,84.2,71.3h229.7l-70.8,91.9H933z"/>
<path d="M1512.4,399.3l-97.6-98.6l-101.4,98.6h-137.8l101-95.2c50.7-47.8,67-60.3,74.6-65.5c-7.7-6.2-23.9-18.2-67.9-60.8
	l-102.9-98.6H1334l91.9,93.3l92.8-93.3h143.1l-107.2,100c-36.8,34.4-52.6,47.4-62.7,55c13.9,9.1,34,26.3,78.9,70.8l97.6,94.3H1512.4
	z"/>
<text transform="matrix(1 0 0 1 1374.6406 -188.6641)" style="fill:#FFFFFF; font-family:'EthnocentricRg-Bold'; font-size:118.358px;">X</text>
</svg>
